<svg id="flat" height="512" viewBox="0 0 512 512" width="512" xmlns="http://www.w3.org/2000/svg"><path d="m392 136v-32h-17.60352a79.52249 79.52249 0 0 0 -11.66113-28.10791l12.46065-12.46069-22.6274-22.6274-12.46069 12.46065a79.52249 79.52249 0 0 0 -28.10791-11.66113v-17.60352h-32v17.60352a79.52249 79.52249 0 0 0 -28.10791 11.66113l-12.46069-12.46065-22.6274 22.6274 12.46069 12.46069a79.52249 79.52249 0 0 0 -11.66117 28.10791h-17.60352v32h17.60352a79.52249 79.52249 0 0 0 11.66113 28.10791l-12.46065 12.46069 22.6274 22.6274 12.46069-12.46069a79.52249 79.52249 0 0 0 28.10791 11.66117v17.60352h32v-17.60352a79.52249 79.52249 0 0 0 28.10791-11.66113l12.46069 12.46065 22.6274-22.6274-12.46069-12.46069a79.52249 79.52249 0 0 0 11.66117-28.10791zm-96 24a40 40 0 1 1 40-40 40.0001 40.0001 0 0 1 -40 40z" fill="#f5714f"/><path d="m184 232h56v24h-56z" fill="#4b6275"/><path d="m147.409 385.778-9.176-13.107-34.233 23.964-35.412-24.788-9.176 13.107 30.637 21.446-52.675 36.872 9.176 13.108 57.45-40.215 30.634 21.443 9.176-13.107-25.86-18.101z" fill="#a2590d"/><path d="m155.2 344 28.8 144h-16l-48-144z" fill="#db8638"/><path d="m52.8 344-28.8 144h16l48-144z" fill="#db8638"/><path d="m240 368h-152a64 64 0 0 1 -64-64v-72a24 24 0 0 1 24-24h16v80a40 40 0 0 0 40 40h136z" fill="#e0edff"/><path d="m344 456-34.14568-143.41186a32 32 0 0 0 -31.1298-24.58814h-174.72452a48 48 0 0 0 48 48h112l32 136h16z" fill="#ffb401"/><path d="m312 472h-16v16h80v-16l-32-16z" fill="#c5dafa"/><path d="m224 232h-50l-12.85986-17.14014-17.14014-22.85986 4.41992 13.27a18.31408 18.31408 0 0 1 -4.41992 18.73v64h-88v-72.16992a33.94052 33.94052 0 0 1 25.93994-55.83008h63.68994a32.02415 32.02415 0 0 1 23.92017 10.74l16.80005 18.9099z" fill="#ffceb6"/><path d="m161.14014 214.85986-17.14014-22.85986 4.41992 13.27a18.31408 18.31408 0 0 1 -4.41992 18.73v64h-88v-72.16992a33.94052 33.94052 0 0 1 25.93994-55.83008h63.68994a32.02415 32.02415 0 0 1 23.92017 10.74l16.80005 18.9099z" fill="#548aff"/><path d="m112 256h376v32h-376z" fill="#ea964b"/><rect fill="#4976f2" height="22.627" rx="8.001" transform="matrix(.707 -.707 .707 .707 -139.647 110.863)" width="16.001" x="55.999" y="212.686"/><rect fill="#4976f2" height="30.468" rx="8.001" transform="matrix(.707 -.707 .707 .707 -114.499 118.032)" width="16.001" x="77.228" y="181.994"/><path d="m128 136v32l-16 16-16-16v-32z" fill="#ffceb6"/><path d="m72 232 24-24 16 16h56a24 24 0 0 1 24 24v8h-82.74517a32 32 0 0 1 -22.62741-9.37258z" fill="#ffceb6"/><path d="m288 256 16-80h-56l-16 80z" fill="#62798c"/><path d="m296 456-34.14568-143.41186a32 32 0 0 0 -31.1298-24.58814h-174.72452a48 48 0 0 0 48 48h112l48 136z" fill="#ffc431"/><path d="m264 472v16h64v-16l-32-16z" fill="#e0edff"/><path d="m328 96h160v104h-160z" fill="#8098ab"/><path d="m336 256v-24h56v-72h40v96z" fill="#62798c"/><path d="m384 288h64v32h-64z" fill="#db8638"/><g fill="#c47220"><path d="m408 288h16v32h-16z"/><path d="m416 320-32 168h-24l24-168z"/><path d="m416 320 32 168h24l-24-168z"/></g><path d="m144 288h64v32h-64z" fill="#db8638"/><path d="m168 288h16v32h-16z" fill="#c47220"/><path d="m176 320-32 168h-24l24-168z" fill="#c47220"/><path d="m176 320 32 168h24l-24-168z" fill="#c47220"/><path d="m128 136v32h-8a15.99564 15.99564 0 0 1 -16-16v-16z" fill="#ffbfa1"/><circle cx="96" cy="112" fill="#b66514" r="24"/><path d="m96 136v-16a16 16 0 0 1 16-16 16 16 0 0 1 16 16v16z" fill="#c47220"/><path d="m104 120a27.31368 27.31368 0 0 0 19.31369 8h4.68631v16a16 16 0 0 1 -16 16 16 16 0 0 1 -16-16v-16z" fill="#ffceb6"/></svg>